<svg xmlns="http://www.w3.org/2000/svg" xmlns:xlink="http://www.w3.org/1999/xlink" version="1.1" width="1000" height="1000" viewBox="0 0 1000 1000" xml:space="preserve">
<desc>Created with Fabric.js 3.5.0</desc>
<defs>
</defs>
<rect x="0" y="0" width="100%" height="100%" fill="#ffffff"/>
<g transform="matrix(-1 0 0 -1 500 591.25)" id="251373">
<g style="" vector-effect="non-scaling-stroke">
		<g transform="matrix(0.5 0 0 0.5 0 0)" id="visual">
<path style="stroke: none; stroke-width: 1; stroke-dasharray: none; stroke-linecap: butt; stroke-dashoffset: 0; stroke-linejoin: miter; stroke-miterlimit: 4; is-custom-font: none; font-file-url: none; fill: rgb(33,153,147); fill-rule: nonzero; opacity: 1;" transform=" translate(-1000, -482.5)" d="M 0 364 L 41.7 375.7 C 83.3 387.3 166.7 410.7 250 414.3 C 333.3 418 416.7 402 500 399 C 583.3 396 666.7 406 750 420.5 C 833.3 435 916.7 454 1000 460.8 C 1083.3 467.7 1166.7 462.3 1250 457.2 C 1333.3 452 1416.7 447 1500 443.5 C 1583.3 440 1666.7 438 1750 429 C 1833.3 420 1916.7 404 1958.3 396 L 2000 388 L 2000 601 L 1958.3 601 C 1916.7 601 1833.3 601 1750 601 C 1666.7 601 1583.3 601 1500 601 C 1416.7 601 1333.3 601 1250 601 C 1166.7 601 1083.3 601 1000 601 C 916.7 601 833.3 601 750 601 C 666.7 601 583.3 601 500 601 C 416.7 601 333.3 601 250 601 C 166.7 601 83.3 601 41.7 601 L 0 601 Z" stroke-linecap="round"/>
</g>
		<g transform="matrix(0.5 0 0 0.5 0 26.6713)" id="visual">
<path style="stroke: none; stroke-width: 1; stroke-dasharray: none; stroke-linecap: butt; stroke-dashoffset: 0; stroke-linejoin: miter; stroke-miterlimit: 4; is-custom-font: none; font-file-url: none; fill: rgb(53,187,191); fill-rule: nonzero; opacity: 1;" transform=" translate(-1000, -535.8426)" d="M 0 499 L 41.7 503.5 C 83.3 508 166.7 517 250 509.2 C 333.3 501.3 416.7 476.7 500 477.3 C 583.3 478 666.7 504 750 515.5 C 833.3 527 916.7 524 1000 521.3 C 1083.3 518.7 1166.7 516.3 1250 518.3 C 1333.3 520.3 1416.7 526.7 1500 517.7 C 1583.3 508.7 1666.7 484.3 1750 475.3 C 1833.3 466.3 1916.7 472.7 1958.3 475.8 L 2000 479 L 2000 601 L 1958.3 601 C 1916.7 601 1833.3 601 1750 601 C 1666.7 601 1583.3 601 1500 601 C 1416.7 601 1333.3 601 1250 601 C 1166.7 601 1083.3 601 1000 601 C 916.7 601 833.3 601 750 601 C 666.7 601 583.3 601 500 601 C 416.7 601 333.3 601 250 601 C 166.7 601 83.3 601 41.7 601 L 0 601 Z" stroke-linecap="round"/>
</g>
</g>
</g>
</svg>