<svg id="visual" viewBox="0 0 2000 600" width="2000" height="600" xmlns="http://www.w3.org/2000/svg" xmlns:xlink="http://www.w3.org/1999/xlink" version="1.1"><path d="M0 364L41.7 375.7C83.3 387.3 166.7 410.7 250 414.3C333.3 418 416.7 402 500 399C583.3 396 666.7 406 750 420.5C833.3 435 916.7 454 1000 460.8C1083.3 467.7 1166.7 462.3 1250 457.2C1333.3 452 1416.7 447 1500 443.5C1583.3 440 1666.7 438 1750 429C1833.3 420 1916.7 404 1958.3 396L2000 388L2000 601L1958.3 601C1916.7 601 1833.3 601 1750 601C1666.7 601 1583.3 601 1500 601C1416.7 601 1333.3 601 1250 601C1166.7 601 1083.3 601 1000 601C916.7 601 833.3 601 750 601C666.7 601 583.3 601 500 601C416.7 601 333.3 601 250 601C166.7 601 83.3 601 41.7 601L0 601Z" fill="#219993"></path><path d="M0 499L41.7 503.5C83.3 508 166.7 517 250 509.2C333.3 501.3 416.7 476.7 500 477.3C583.3 478 666.7 504 750 515.5C833.3 527 916.7 524 1000 521.3C1083.3 518.7 1166.7 516.3 1250 518.3C1333.3 520.3 1416.7 526.7 1500 517.7C1583.3 508.7 1666.7 484.3 1750 475.3C1833.3 466.3 1916.7 472.7 1958.3 475.8L2000 479L2000 601L1958.3 601C1916.7 601 1833.3 601 1750 601C1666.7 601 1583.3 601 1500 601C1416.7 601 1333.3 601 1250 601C1166.7 601 1083.3 601 1000 601C916.7 601 833.3 601 750 601C666.7 601 583.3 601 500 601C416.7 601 333.3 601 250 601C166.7 601 83.3 601 41.7 601L0 601Z" fill="#35bbbf"></path></svg>